<?xml version="1.0" standalone="no"?>
<!DOCTYPE svg PUBLIC "-//W3C//DTD SVG 20010904//EN"
 "http://www.w3.org/TR/2001/REC-SVG-20010904/DTD/svg10.dtd">
<svg version="1.0" xmlns="http://www.w3.org/2000/svg"
 width="310.000000pt" height="310.000000pt" viewBox="0 0 310.000000 310.000000"
 preserveAspectRatio="xMidYMid meet">
<metadata>
Created by potrace 1.11, written by Peter Selinger 2001-2013
</metadata>
<g transform="translate(0.000000,310.000000) scale(0.100000,-0.100000)"
fill="#000000" stroke="none">
<path d="M2484 1616 c-42 -42 -45 -88 -10 -141 14 -21 22 -43 19 -55 -3 -11
-36 -43 -74 -70 -38 -27 -75 -60 -83 -72 -7 -13 -17 -59 -20 -103 -19 -214
-26 -232 -95 -220 -48 8 -52 22 -17 68 28 38 46 89 46 128 0 37 -58 103 -102
115 -22 6 -42 24 -61 52 -38 56 -67 55 -79 -3 -5 -22 -20 -51 -33 -65 -14 -14
-30 -41 -36 -60 -16 -48 -27 -60 -55 -60 -27 0 -49 29 -59 78 -5 27 -11 33
-28 30 -21 -3 -22 -9 -24 -116 -3 -141 -27 -200 -64 -156 -20 24 -60 41 -116
49 -47 6 -53 4 -65 -15 -7 -12 -35 -33 -63 -46 -67 -33 -120 -65 -150 -94 -20
-19 -36 -23 -77 -23 -29 1 -70 4 -90 8 -36 7 -38 6 -38 -19 0 -21 7 -30 33
-41 54 -22 62 -41 38 -83 -10 -19 -19 -23 -49 -20 -31 3 -37 0 -42 -22 -6 -25
-6 -25 -111 -22 -76 3 -115 9 -145 23 -49 23 -77 24 -94 4 -7 -8 -30 -18 -52
-21 -28 -5 -45 -15 -61 -38 -12 -17 -30 -39 -39 -48 -23 -23 -23 -39 3 -72 43
-55 233 -187 354 -246 266 -131 448 -166 731 -140 82 7 160 18 174 25 14 7 48
15 75 18 49 5 197 58 223 79 6 6 12 23 12 39 0 28 2 29 45 29 159 0 458 287
604 578 49 98 111 276 111 320 0 43 -41 99 -103 140 -28 19 -63 45 -77 57 -14
13 -39 30 -56 38 -40 21 -46 38 -32 92 15 54 2 87 -44 115 -49 30 -84 26 -124
-14z m-289 -496 c0 -31 -31 -39 -40 -11 -8 26 2 43 23 39 11 -2 17 -13 17 -28z
m-210 -125 c0 -28 -29 -25 -33 3 -3 19 0 23 15 20 10 -2 18 -12 18 -23z m-569
-286 c3 -6 -3 -20 -14 -32 -21 -20 -22 -20 -42 -2 -31 28 -25 45 14 45 19 0
38 -5 42 -11z m928 -62 c16 -25 4 -29 -63 -21 -62 7 -84 23 -33 25 15 0 36 4
47 9 25 11 36 8 49 -13z m-540 -46 c11 -12 14 -21 7 -25 -15 -10 -51 12 -51
29 0 21 24 19 44 -4z m-254 -26 c10 -12 10 -15 -3 -15 -8 0 -20 7 -27 15 -10
12 -10 15 3 15 8 0 20 -7 27 -15z m376 -10 c18 -13 17 -14 -18 -15 -37 0 -59
14 -36 23 22 9 34 7 54 -8z m-224 -90 c13 -18 -19 -24 -68 -12 -49 12 -63 29
-50 62 4 11 16 8 58 -13 29 -15 56 -31 60 -37z m288 -125 c0 -5 -4 -10 -9 -10
-6 0 -13 5 -16 10 -3 6 1 10 9 10 9 0 16 -4 16 -10z m145 -39 c7 -12 -26 -31
-54 -31 -23 0 -29 25 -8 33 21 9 56 7 62 -2z"/>
<path d="M370 1080 c-14 -11 -44 -25 -67 -31 -24 -6 -43 -14 -43 -18 0 -7 79
-162 90 -176 4 -5 10 -22 14 -38 3 -15 20 -39 36 -54 22 -19 30 -35 30 -58 0
-37 29 -79 70 -100 33 -17 80 -20 80 -5 0 5 15 16 33 24 42 18 107 79 107 101
0 21 -18 55 -41 78 -10 10 -22 30 -25 45 -14 56 -48 70 -64 27 -14 -37 -44
-31 -81 15 -41 51 -45 77 -17 107 l22 23 -39 40 c-43 45 -68 49 -105 20z"/>
<path d="M1270 980 c0 -13 38 -32 50 -25 22 14 10 35 -20 35 -16 0 -30 -4 -30
-10z"/>
</g>
</svg>
